<svg width="30" height="30" viewBox="0 0 30 30" fill="none" xmlns="http://www.w3.org/2000/svg">
<path fill-rule="evenodd" clip-rule="evenodd" d="M10.8371 8.78122C10.8371 6.44907 12.7209 4.55633 15.062 4.55633C17.3923 4.55633 19.2859 6.44939 19.2869 8.77947C19.2765 11.0518 17.5018 12.8927 15.2647 12.9932C15.1293 12.9834 14.9859 12.9839 14.8501 12.9933C12.6107 12.8939 10.8371 11.0517 10.8371 8.78122ZM15.062 2.8389C11.7699 2.8389 9.11968 5.50308 9.11968 8.78122C9.11968 11.991 11.6496 14.6044 14.8385 14.7116C14.8741 14.7128 14.9097 14.7118 14.9451 14.7086C15.022 14.7016 15.1045 14.7023 15.1597 14.7078C15.1977 14.7116 15.2359 14.7129 15.274 14.7116C18.4636 14.6044 20.991 11.9911 21.0043 8.78479L21.0043 8.78122C21.0043 5.50182 18.3414 2.8389 15.062 2.8389ZM21.458 17.3641C19.7182 16.2021 17.4669 15.6481 15.2592 15.6481C13.0512 15.6481 10.7955 16.2022 9.04556 17.3626L9.04555 17.3625L9.0424 17.3647C7.47914 18.4111 6.58328 19.8729 6.58328 21.443C6.58328 23.0133 7.47945 24.4726 9.04359 25.5135C10.7886 26.6807 13.0423 27.2379 15.2506 27.2379C17.4593 27.2379 19.7135 26.6805 21.4586 25.5128L21.4588 25.5127C23.022 24.4662 23.9179 23.0045 23.9179 21.4344C23.9179 19.8642 23.0219 18.405 21.458 17.3641ZM8.30072 21.443C8.30072 20.5776 8.78982 19.601 9.9962 18.7929C11.4061 17.8586 13.3117 17.3655 15.2592 17.3655C17.2077 17.3655 19.1068 17.8591 20.5042 18.7923L20.5054 18.7932C21.7116 19.5956 22.2005 20.5691 22.2005 21.4344C22.2005 22.3002 21.7109 23.2772 20.5034 24.0855C19.1 25.0245 17.198 25.5205 15.2506 25.5205C13.3031 25.5205 11.4011 25.0245 9.99762 24.0854L9.99574 24.0842C8.78962 23.2818 8.30072 22.3082 8.30072 21.443Z" fill="#101317"/>
</svg>
